<?xml version="1.0" encoding="utf-8"?>
<!-- Generator: Adobe Illustrator 21.1.0, SVG Export Plug-In . SVG Version: 6.00 Build 0)  -->
<svg version="1.1" id="Layer_1" xmlns="http://www.w3.org/2000/svg" xmlns:xlink="http://www.w3.org/1999/xlink" x="0px" y="0px"
	 viewBox="0 0 384 384" style="enable-background:new 0 0 384 384;" xml:space="preserve">
<style type="text/css">
	.st0{fill:#FFFFFF;}
</style>
<g>
	<path d="M180,0c8,0,16,0,24,0c1,0.2,2.1,0.6,3.1,0.6c29.7,2.3,57.5,10.9,82.9,26.4c49.4,30.3,79.9,73.9,90.9,130.9
		c1.4,7.3,2.1,14.7,3.1,22c0,8,0,16,0,24c-0.2,1.2-0.6,2.3-0.7,3.5c-2.3,29.6-11,57.3-26.4,82.6c-29.4,48.1-71.7,78.3-126.9,90.1
		c-8.6,1.8-17.3,2.6-26,3.9c-8,0-16,0-24,0c-6.6-0.9-13.2-1.5-19.7-2.6C81.6,367.9,20.1,308.3,3.9,229.9C2.1,221.4,1.3,212.6,0,204
		c0-8,0-16,0-24c0.2-1.3,0.5-2.6,0.7-3.8c1.8-10.9,2.6-22,5.7-32.6C28.3,68.8,77.4,22.2,153.2,4.1C162,2,171.1,1.3,180,0z
		 M243.1,87.4c-13.5,0-26.6-0.6-39.6,0.1c-18.9,1.1-32.6,10.3-38.4,29c-1.9,6-2.3,12.5-2.7,18.9c-0.4,7.8-0.1,15.7-0.1,24
		c-7.5,0-14.6,0-21.8,0c0,13.4,0,26.2,0,39.6c7.4,0,14.5,0,22,0c0,37.3,0,74,0,110.9c15.5,0,30.6,0,46.2,0c0-37.1,0-73.9,0-111.1
		c2,0,3.4,0,4.9,0c7.7,0,15.5,0.1,23.2-0.1c1.1,0,3-1.1,3.1-1.9c1.4-12.3,2.6-24.6,3.9-37.5c-11.8,0-23.4,0-35,0
		c0-8.8-0.2-17,0.1-25.3c0.2-5.1,3.7-8.2,8.9-8.4c4.1-0.2,8.3,0,12.4,0c4.3,0,8.7,0,12.9,0C243.1,112.6,243.1,100.2,243.1,87.4z"/>
	<path class="st0" d="M204,384c8.7-1.3,17.5-2.1,26-3.9c55.2-11.8,97.5-42,126.9-90.1c15.5-25.3,24.1-53,26.4-82.6
		c0.1-1.2,0.4-2.3,0.7-3.5c0,60,0,120,0,180C324,384,264,384,204,384z"/>
	<path class="st0" d="M0,204c1.3,8.6,2.1,17.4,3.9,25.9c16.2,78.4,77.8,138,156.4,151.4c6.5,1.1,13.1,1.8,19.7,2.6
		c-60,0-120,0-180,0C0,324,0,264,0,204z"/>
	<path class="st0" d="M180,0c-8.9,1.3-18,2-26.8,4.1C77.4,22.2,28.3,68.8,6.4,143.6c-3.1,10.5-3.9,21.7-5.7,32.6
		c-0.2,1.3-0.5,2.6-0.7,3.8C0,120.1,0,60.1,0,0C60,0,120,0,180,0z"/>
	<path class="st0" d="M384,180c-1-7.3-1.7-14.8-3.1-22c-11-57-41.5-100.7-90.9-130.9c-25.4-15.5-53.2-24.1-82.9-26.4
		c-1-0.1-2.1-0.4-3.1-0.6c60,0,120,0,180,0C384,60,384,120,384,180z"/>
	<path class="st0" d="M243.1,87.4c0,12.8,0,25.2,0,38.2c-4.3,0-8.6,0-12.9,0c-4.1,0-8.3-0.1-12.4,0c-5.2,0.2-8.7,3.3-8.9,8.4
		c-0.3,8.2-0.1,16.5-0.1,25.3c11.7,0,23.2,0,35,0c-1.3,12.9-2.5,25.2-3.9,37.5c-0.1,0.8-2,1.8-3.1,1.9c-7.7,0.2-15.5,0.1-23.2,0.1
		c-1.4,0-2.9,0-4.9,0c0,37.2,0,74,0,111.1c-15.7,0-30.8,0-46.2,0c0-36.9,0-73.6,0-110.9c-7.4,0-14.6,0-22,0c0-13.4,0-26.2,0-39.6
		c7.2,0,14.3,0,21.8,0c0-8.3-0.3-16.2,0.1-24c0.4-6.3,0.8-12.9,2.7-18.9c5.8-18.6,19.5-27.8,38.4-29
		C216.5,86.8,229.6,87.4,243.1,87.4z"/>
</g>
</svg>
