<?xml version="1.0" encoding="utf-8"?>
<!-- Generator: Adobe Illustrator 21.1.0, SVG Export Plug-In . SVG Version: 6.00 Build 0)  -->
<svg version="1.1" id="Layer_1" xmlns="http://www.w3.org/2000/svg" xmlns:xlink="http://www.w3.org/1999/xlink" x="0px" y="0px"
	 viewBox="0 0 384 384" style="enable-background:new 0 0 384 384;" xml:space="preserve">
<style type="text/css">
	.st0{fill:#FFFFFF;}
</style>
<g>
	<path d="M180,0c8,0,16,0,24,0c1,0.2,2.1,0.6,3.1,0.6c29.8,2.3,57.7,10.9,83.2,26.6c49.2,30.3,79.6,73.9,90.6,130.7
		c1.4,7.3,2.1,14.7,3.1,22c0,8,0,16,0,24c-0.2,1.2-0.6,2.3-0.7,3.5c-2.3,29.6-11,57.3-26.4,82.6c-29.4,48.1-71.7,78.3-126.9,90.1
		c-8.6,1.8-17.3,2.6-26,3.9c-8,0-16,0-24,0c-6.6-0.9-13.2-1.5-19.7-2.6C81.6,367.9,20.1,308.3,3.9,229.9C2.1,221.4,1.3,212.6,0,204
		c0-8,0-16,0-24c0.2-1.3,0.5-2.6,0.7-3.8c1.8-10.9,2.6-22,5.7-32.6C28.3,68.8,77.4,22.2,153.2,4.1C162,2,171.1,1.3,180,0z
		 M301.2,192.2c0-21.3,0-42.7,0-64c0-3.7-0.1-7.5-0.8-11.1c-4-20.5-20.8-34.1-42.2-34.2c-44.1-0.1-88.3-0.1-132.4,0
		c-2.9,0-5.9,0.2-8.7,0.8c-20.8,4.2-34.1,21.1-34.2,43.6c-0.1,43.2-0.1,86.4,0.1,129.6c0,4.6,0.5,9.4,1.7,13.8
		c5.1,18.7,21.5,30.6,42.3,30.6c43.5,0.1,86.9,0.1,130.4,0c3.3,0,6.7-0.2,9.9-0.9c20.6-4.3,33.8-20.9,34-42.9
		C301.3,235.7,301.2,214,301.2,192.2z"/>
	<path class="st0" d="M204,384c8.7-1.3,17.5-2.1,26-3.9c55.2-11.8,97.5-42,126.9-90.1c15.5-25.3,24.1-53,26.4-82.6
		c0.1-1.2,0.4-2.3,0.7-3.5c0,60,0,120,0,180C324,384,264,384,204,384z"/>
	<path class="st0" d="M0,204c1.3,8.6,2.1,17.4,3.9,25.9c16.2,78.4,77.8,138,156.4,151.4c6.5,1.1,13.1,1.8,19.7,2.6
		c-60,0-120,0-180,0C0,324,0,264,0,204z"/>
	<path class="st0" d="M180,0c-8.9,1.3-18,2-26.8,4.1C77.4,22.2,28.3,68.8,6.4,143.6c-3.1,10.5-3.9,21.7-5.7,32.6
		c-0.2,1.3-0.5,2.6-0.7,3.8C0,120.1,0,60.1,0,0C60,0,120,0,180,0z"/>
	<path class="st0" d="M384,180c-1-7.3-1.7-14.8-3.1-22c-11-56.8-41.3-100.5-90.6-130.7c-25.5-15.7-53.4-24.3-83.2-26.6
		c-1-0.1-2.1-0.4-3.1-0.6c60,0,120,0,180,0C384,60,384,120,384,180z"/>
	<path class="st0" d="M301.2,192.2c0,21.7,0.1,43.5,0,65.2c-0.1,22-13.4,38.6-34,42.9c-3.2,0.7-6.6,0.9-9.9,0.9
		c-43.5,0.1-86.9,0.1-130.4,0c-20.9-0.1-37.2-11.9-42.3-30.6c-1.2-4.4-1.7-9.2-1.7-13.8c-0.1-43.2-0.1-86.4-0.1-129.6
		c0-22.4,13.4-39.4,34.2-43.6c2.9-0.6,5.8-0.8,8.7-0.8c44.1,0,88.3-0.1,132.4,0c21.5,0.1,38.2,13.7,42.2,34.2
		c0.7,3.6,0.8,7.4,0.8,11.1C301.2,149.6,301.2,170.9,301.2,192.2z M104,169.8c0,1.8,0,3.1,0,4.4c0,27.6,0,55.2,0,82.8
		c0,14.5,8.6,23,23.2,23c43.2,0,86.4,0,129.5,0c14.5,0,23.2-8.6,23.2-23.1c0-27.7,0-55.4,0-83.2c0-1.3-0.1-2.6-0.2-4
		c-10.8,0-21.3,0-31.9,0c9,29.5,2.6,54.5-23.3,72c-20.7,14-43.4,14.2-64.3,0.4c-26.4-17.4-33-42.6-24.1-72.4
		C125.5,169.8,115,169.8,104,169.8z M230.4,192.1c0.1-20.9-17.1-38.4-37.9-38.5c-21.2-0.1-38.8,17-38.9,37.9
		c-0.1,21.5,17,38.9,38.3,38.9C213.1,230.4,230.3,213.3,230.4,192.1z M239.2,144.6c12.5,0,24.5,0,36.4,0c0-12.4,0-24.5,0-36.3
		c-12.4,0-24.4,0-36.4,0C239.2,120.6,239.2,132.5,239.2,144.6z"/>
	<path d="M104,169.8c11,0,21.5,0,32.1,0c-8.9,29.9-2.4,55,24.1,72.4c20.9,13.8,43.6,13.6,64.3-0.4c25.9-17.5,32.3-42.5,23.3-72
		c10.6,0,21.1,0,31.9,0c0.1,1.4,0.2,2.7,0.2,4c0,27.7,0,55.4,0,83.2c0,14.5-8.6,23.1-23.2,23.1c-43.2,0-86.4,0-129.5,0
		c-14.6,0-23.2-8.6-23.2-23c0-27.6,0-55.2,0-82.8C104,172.8,104,171.5,104,169.8z"/>
	<path d="M230.4,192.1c-0.1,21.2-17.3,38.3-38.5,38.3c-21.3,0-38.4-17.4-38.3-38.9c0.1-21,17.7-38.1,38.9-37.9
		C213.3,153.7,230.5,171.2,230.4,192.1z"/>
	<path d="M239.2,144.6c0-12.1,0-24,0-36.3c12,0,24.1,0,36.4,0c0,11.8,0,23.9,0,36.3C263.7,144.6,251.7,144.6,239.2,144.6z"/>
</g>
</svg>
