<?xml version="1.0" encoding="utf-8"?>
<!-- Generator: Adobe Illustrator 21.1.0, SVG Export Plug-In . SVG Version: 6.00 Build 0)  -->
<svg version="1.1"
	 id="Layer_1" xmlns:cc="http://creativecommons.org/ns#" xmlns:dc="http://purl.org/dc/elements/1.1/" xmlns:inkscape="http://www.inkscape.org/namespaces/inkscape" xmlns:rdf="http://www.w3.org/1999/02/22-rdf-syntax-ns#" xmlns:sodipodi="http://sodipodi.sourceforge.net/DTD/sodipodi-0.dtd" xmlns:svg="http://www.w3.org/2000/svg"
	 xmlns="http://www.w3.org/2000/svg" xmlns:xlink="http://www.w3.org/1999/xlink" x="0px" y="0px" viewBox="0 0 82 64"
	 style="enable-background:new 0 0 82 64;" xml:space="preserve">
<g transform="translate(0,-952.36218)">
	<path d="M5,952.4c-2.8,0-5,2.2-5,5s2.2,5,5,5h72c2.8,0,5-2.2,5-5s-2.2-5-5-5H5z M5,979.4c-2.8,0-5,2.2-5,5s2.2,5,5,5h72
		c2.8,0,5-2.2,5-5s-2.2-5-5-5H5z M5,1006.4c-2.8,0-5,2.2-5,5s2.2,5,5,5h72c2.8,0,5-2.2,5-5s-2.2-5-5-5H5z"/>
</g>
</svg>
