<svg xmlns="http://www.w3.org/2000/svg" xmlns:xlink="http://www.w3.org/1999/xlink" version="1.1" x="0px" y="0px" viewBox="0 0 128 160" style="enable-background:new 0 0 128 128;" xml:space="preserve"><path d="M21,79c-3.9,0-7,3.1-7,7c0,3.9,3.1,7,7,7c3.9,0,7-3.1,7-7C28,82.1,24.9,79,21,79z M21,91c-2.8,0-5-2.2-5-5c0-2.8,2.2-5,5-5  c2.8,0,5,2.2,5,5C26,88.8,23.8,91,21,91z"/><path d="M21,75c0.6,0,1-0.4,1-1v-8c0-0.6-0.4-1-1-1c-0.6,0-1,0.4-1,1v8C20,74.6,20.4,75,21,75z"/><path d="M128,61.7c0-5.1-3.9-8.4-9.6-8.4l-36.7,0c0.2-1.1,0.5-2.2,0.7-3.3c2.3-9.9,4.5-19.3,3-25.4c-1.1-4.7-2.7-11.9-8.7-14.6  c-1.4-0.7-2.8-1-4.3-1c-3.5,0-6.9,2.1-8.9,5.7c-2.1,3.6-1.8,7.6-1.5,11.2c0.1,0.9,0.1,1.7,0.2,2.6c0.1,3.4-7.9,17.6-12.7,26.1  c-1.2,2.2-2.4,4.2-3.3,5.9c-0.6,0.5-2.3,1.6-4.3,2.9c-0.7-3.6-3.8-6.3-7.5-6.3H0v60h34.3c3.3,0,6.2-2.2,7.2-5.3  c1.9,0,3.3,0.1,4.6,0.6c0.8,0.3,1.4,0.7,2.1,1.1c1.8,1.2,3.9,2.5,8.8,2.5c0.1,0,0.2,0,0.2,0H107c5.7,0,9.6-3.5,9.6-8.6  c0-2.3-0.8-4.4-2.1-6c4-1.2,6.9-4.9,6.9-9.2c0-2.5-1-4.9-2.5-6.7c3.6-1.3,6.1-4.5,6.1-8.5c0-2.6-1-4.9-2.5-6.7  C125.8,68.7,128,65.5,128,61.7z M38,109.2c0,2.1-1.6,3.8-3.7,3.8H4V61h30.3c2,0,3.7,1.7,3.7,3.8V109.2z M118.5,67.1  C118.3,67,94,67,94,67c-1.1,0-2,0.9-2,2s0.9,2,2,2c0,0,22.2,0,22.2,0c2.6,0.4,4.7,3,4.7,5.8c0,3-2.4,5.1-5.6,5.1l-20.6-0.1  c-1.3,0-1.8,1.1-1.8,2.2s0.9,2,2,2h17.3c2.7,0.3,5.1,3.1,5.1,6.1c0,3.1-2.5,5.6-5.6,5.6l-16.6,0c-1.5,0-2.1,1.1-2.1,2.3s0.9,2,2,2  h13.6c2.3,0.7,4,2.8,4,5.4c0,3.4-3,4.6-5.6,4.6H57.7c-0.1,0-0.1,0-0.3,0l-0.2,0c-3.8,0-5.2-0.9-6.7-1.9c-0.8-0.5-1.7-1.1-2.9-1.5  c-1.9-0.7-3.7-0.8-5.6-0.9V68c7-4.4,7.3-4.8,7.5-5.3c1-1.8,2.2-3.9,3.4-6.2c7.6-13.4,13.3-24,13.2-28.2c0-0.9-0.1-1.8-0.2-2.8  c-0.2-3.3-0.5-6.4,1-8.9c1.8-3.2,4.9-4.5,8-3c4.2,2,5.5,7.5,6.5,11.9c1.2,5.2-0.9,14.1-3,23.6c-0.4,1.9-0.9,3.8-1.3,5.7  c-0.1,0.6,0,1.2,0.4,1.7c0.4,0.5,1,0.7,1.6,0.7l39.2,0c2.7,0,5.6,1.2,5.6,4.4C124,64.7,121.8,66.8,118.5,67.1z"/><text x="0" y="143" fill="#000000" font-size="5px" font-weight="bold" font-family="'Helvetica Neue', Helvetica, Arial-Unicode, Arial, Sans-serif">Created by priyanka</text><text x="0" y="148" fill="#000000" font-size="5px" font-weight="bold" font-family="'Helvetica Neue', Helvetica, Arial-Unicode, Arial, Sans-serif">from the Noun Project</text></svg>