<svg xmlns="http://www.w3.org/2000/svg" xmlns:xlink="http://www.w3.org/1999/xlink" version="1.1" x="0px" y="0px" viewBox="0 0 225 281.6675" enable-background="new 0 0 225 225.334" xml:space="preserve"><g><path fill="none" d="M66.821,91.842c8.045-17.438,25.641-29.571,46.018-29.571c20.379,0,37.975,12.133,46.021,29.571h40.03V43.055   c0-9.501-7.704-17.232-17.176-17.232h-93.93v25.038c0,3.279-2.649,5.937-5.918,5.937c-3.268,0-5.917-2.658-5.917-5.937V25.823   h-4.266v25.038c0,3.279-2.65,5.937-5.917,5.937c-3.268,0-5.917-2.658-5.917-5.937V25.823h-5.062v25.038   c0,3.279-2.649,5.937-5.917,5.937c-3.268,0-5.917-2.658-5.917-5.937V25.895c-8.813,0.722-15.769,8.136-15.769,17.161v48.787H66.821   z M152.163,49.585c0-4.067,3.287-7.365,7.34-7.365h15.416c4.054,0,7.34,3.297,7.34,7.365v15.466c0,4.067-3.286,7.364-7.34,7.364   h-15.416c-4.053,0-7.34-3.297-7.34-7.364V49.585z"/><path fill="none" d="M86.805,113.131c0,14.403,11.679,26.121,26.034,26.121c14.357,0,26.037-11.718,26.037-26.121   c0-14.404-11.68-26.122-26.037-26.122C98.484,87.009,86.805,98.727,86.805,113.131z"/><path fill="none" d="M163.399,109.653c0.078,1.15,0.133,2.308,0.133,3.478c0,28.044-22.74,50.86-50.693,50.86   c-27.95,0-50.69-22.816-50.69-50.86c0-1.17,0.054-2.327,0.132-3.478H27.183v71.218c0,9.501,7.705,17.232,17.175,17.232h137.355   c9.472,0,17.176-7.731,17.176-17.232v-71.218H163.399z"/><path d="M181.714,3.064H44.358C22.38,3.064,4.5,21.004,4.5,43.055v137.816c0,22.051,17.88,39.991,39.858,39.991h137.355   c21.979,0,39.86-17.94,39.86-39.991V43.055C221.574,21.004,203.693,3.064,181.714,3.064z M42.952,25.895v24.966   c0,3.279,2.649,5.937,5.917,5.937c3.268,0,5.917-2.658,5.917-5.937V25.823h5.062v25.038c0,3.279,2.649,5.937,5.917,5.937   c3.268,0,5.917-2.658,5.917-5.937V25.823h4.266v25.038c0,3.279,2.65,5.937,5.917,5.937c3.269,0,5.918-2.658,5.918-5.937V25.823   h93.93c9.472,0,17.176,7.73,17.176,17.232v48.787h-40.03c-8.046-17.438-25.642-29.571-46.021-29.571   c-20.377,0-37.973,12.133-46.018,29.571H27.183V43.055C27.183,34.03,34.139,26.617,42.952,25.895z M138.876,113.131   c0,14.403-11.68,26.121-26.037,26.121c-14.355,0-26.034-11.718-26.034-26.121c0-14.404,11.679-26.122,26.034-26.122   C127.196,87.009,138.876,98.727,138.876,113.131z M181.714,198.104H44.358c-9.471,0-17.175-7.731-17.175-17.232v-71.218h35.098   c-0.078,1.15-0.132,2.308-0.132,3.478c0,28.044,22.74,50.86,50.69,50.86c27.953,0,50.693-22.816,50.693-50.86   c0-1.17-0.055-2.327-0.133-3.478h35.49v71.218C198.89,190.372,191.186,198.104,181.714,198.104z"/><path d="M159.503,72.415h15.416c4.054,0,7.34-3.297,7.34-7.364V49.585c0-4.067-3.286-7.365-7.34-7.365h-15.416   c-4.053,0-7.34,3.297-7.34,7.365v15.466C152.163,69.118,155.45,72.415,159.503,72.415z"/></g><text x="0" y="240.334" fill="#000000" font-size="5px" font-weight="bold" font-family="'Helvetica Neue', Helvetica, Arial-Unicode, Arial, Sans-serif">Created by Víctor Fernández</text><text x="0" y="245.334" fill="#000000" font-size="5px" font-weight="bold" font-family="'Helvetica Neue', Helvetica, Arial-Unicode, Arial, Sans-serif">from the Noun Project</text></svg>