<svg xmlns="http://www.w3.org/2000/svg" xmlns:xlink="http://www.w3.org/1999/xlink" version="1.1" x="0px" y="0px" viewBox="0 0 100 125" style="enable-background:new 0 0 100 100;" xml:space="preserve"><style type="text/css">
	.st0{display:none;}
	.st1{display:inline;}
</style><g class="st0"><path class="st1" d="M72.2,41.5V31.3c0-12.2-10-22.2-22.2-22.2s-22.2,10-22.2,22.2v10.2c-5.7,0.5-10.1,5.3-10.1,11.1v27.1   c0,6.1,5,11.1,11.1,11.1h42.4c6.1,0,11.1-5,11.1-11.1V52.6C82.3,46.8,77.9,42,72.2,41.5z M50,14.1c9.5,0,17.2,7.7,17.2,17.2v10.1   H32.8V31.3C32.8,21.9,40.5,14.1,50,14.1z M77.3,79.7c0,3.4-2.8,6.1-6.1,6.1H28.8c-3.4,0-6.1-2.8-6.1-6.1V52.6   c0-3.4,2.8-6.1,6.1-6.1h42.4c3.4,0,6.1,2.8,6.1,6.1V79.7z"/></g><g class="st0"><g class="st1"><path d="M50,4.8C25.1,4.8,4.8,25.1,4.8,50c0,24.9,20.3,45.2,45.2,45.2S95.2,74.9,95.2,50C95.2,25.1,74.9,4.8,50,4.8z M50,90.2    c-22.1,0-40.2-18-40.2-40.2c0-22.1,18-40.2,40.2-40.2s40.2,18,40.2,40.2C90.2,72.1,72.1,90.2,50,90.2z"/><path d="M67.2,32.8C63.9,21.7,57.5,14.3,50,14.3s-13.9,7.4-17.2,18.5C21.7,36.1,14.3,42.5,14.3,50s7.4,13.9,18.5,17.2    c3.3,11.1,9.7,18.5,17.2,18.5s13.9-7.4,17.2-18.5c11.1-3.3,18.5-9.7,18.5-17.2S78.3,36.1,67.2,32.8z M50,19.3    c4.2,0,8.7,4.5,11.5,12.2c-3.6-0.6-7.4-1-11.5-1s-7.9,0.4-11.5,1C41.3,23.9,45.8,19.3,50,19.3z M64.5,50c0,4.8-0.5,9.2-1.4,13.1    c-3.9,0.9-8.3,1.4-13.1,1.4s-9.2-0.5-13.1-1.4c-0.9-3.9-1.4-8.3-1.4-13.1c0-4.8,0.5-9.2,1.4-13.1c3.9-0.9,8.3-1.4,13.1-1.4    s9.2,0.5,13.1,1.4C64,40.8,64.5,45.2,64.5,50z M19.3,50c0-4.2,4.5-8.7,12.2-11.5c-0.6,3.6-1,7.4-1,11.5c0,4,0.4,7.9,1,11.5    C23.9,58.7,19.3,54.2,19.3,50z M50,80.7c-4.2,0-8.7-4.5-11.5-12.2c3.6,0.6,7.4,1,11.5,1s7.9-0.4,11.5-1    C58.7,76.1,54.2,80.7,50,80.7z M68.5,61.5c0.6-3.6,1-7.4,1-11.5c0-4-0.4-7.9-1-11.5c7.6,2.8,12.2,7.2,12.2,11.5    C80.7,54.2,76.1,58.7,68.5,61.5z"/></g></g><g class="st0"><g class="st1"><circle cx="27.5" cy="50" r="4.7"/><circle cx="50" cy="50" r="4.7"/><circle cx="72.5" cy="50" r="4.7"/></g></g><g class="st0"><g class="st1"><path d="M78.8,7.4H21.2c-7.6,0-13.8,6.2-13.8,13.8v57.6c0,7.6,6.2,13.8,13.8,13.8h57.6c7.6,0,13.8-6.2,13.8-13.8V21.2    C92.6,13.6,86.4,7.4,78.8,7.4z M21.2,12.4h57.6c4.8,0,8.7,3.9,8.7,8.7v23.2H12.4V21.2C12.4,16.4,16.4,12.4,21.2,12.4z M78.8,87.6    H21.2c-4.8,0-8.7-3.9-8.7-8.7V49.4h75.1v29.4C87.6,83.6,83.6,87.6,78.8,87.6z"/><circle cx="29.2" cy="28.7" r="9"/><path d="M47.7,25.1h30.4c1.4,0,2.5-1.1,2.5-2.5c0-1.4-1.1-2.5-2.5-2.5H47.7c-1.4,0-2.5,1.1-2.5,2.5C45.2,24,46.4,25.1,47.7,25.1z"/><path d="M47.7,37.9h30.4c1.4,0,2.5-1.1,2.5-2.5c0-1.4-1.1-2.5-2.5-2.5H47.7c-1.4,0-2.5,1.1-2.5,2.5C45.2,36.7,46.4,37.9,47.7,37.9    z"/></g></g><g class="st0"><path class="st1" d="M94.6,33.6c0-2.4-0.7-4.8-1.9-6.9l-6-17.4c-0.3-1-1.3-1.7-2.4-1.7H15.6c-1.1,0-2,0.7-2.4,1.7l-6,17.4   c-1.2,2.1-1.8,4.4-1.8,6.9c0,5.4,3.2,10.1,7.7,12.4v40c0,3.6,2.9,6.5,6.5,6.5h18.1h24.7h18.1c3.6,0,6.5-2.9,6.5-6.5V46   C91.5,43.7,94.6,39,94.6,33.6z M17.4,12.6h65.2L87,25.2H13L17.4,12.6z M42.6,87.4V60.6c0-0.1,0.1-0.1,0.1-0.1h14.4   c0.1,0,0.1,0.1,0.1,0.1v26.8H42.6z M81.9,85.9c0,0.8-0.7,1.5-1.5,1.5H62.4V60.6c0-2.8-2.3-5.1-5.1-5.1H42.8c-2.8,0-5.1,2.3-5.1,5.1   v26.8H19.6c-0.8,0-1.5-0.7-1.5-1.5V47.4c0.4,0,0.7,0.1,1.1,0.1c4,0,7.7-1.7,10.3-4.6c2.6,2.9,6.3,4.6,10.3,4.6   c4,0,7.7-1.7,10.3-4.6c2.6,2.9,6.3,4.6,10.3,4.6c4,0,7.7-1.7,10.3-4.6c2.6,2.9,6.3,4.6,10.3,4.6c0.4,0,0.7,0,1.1-0.1V85.9z    M80.8,42.4c-3.4,0-6.6-2-8-5.1c-0.4-0.9-1.3-1.4-2.3-1.4c-1,0-1.9,0.6-2.3,1.4c-1.5,3.1-4.6,5.1-8,5.1c-3.4,0-6.6-2-8-5.1   c-0.4-0.9-1.3-1.4-2.3-1.4s-1.9,0.6-2.3,1.4c-1.5,3.1-4.6,5.1-8,5.1c-3.4,0-6.6-2-8-5.1c-0.4-0.9-1.3-1.4-2.3-1.4   c-1,0-1.9,0.6-2.3,1.4c-1.5,3.1-4.6,5.1-8,5.1c-4.9,0-8.8-4-8.8-8.8c0-1.2,0.2-2.3,0.7-3.4H89c0.4,1.1,0.7,2.2,0.7,3.4   C89.6,38.4,85.7,42.4,80.8,42.4z"/></g><g class="st0"><g class="st1"><path d="M81.2,16.3l-66,19.9c-4,1.2-4.1,6.9-0.1,8.2L31.8,50c1.3,0.4,2.7,0.3,3.9-0.4l39.4-24.1c0.6-0.4,1.2,0.5,0.6,0.9    L42.6,53.3c-1.4,1.1-1.7,3.1-0.7,4.6L57,81.6c2.3,3.5,7.6,3,9.1-1l21.5-57.5C89.1,19.1,85.3,15.1,81.2,16.3z"/><path d="M34.3,55.6c-0.6-0.9-2-0.4-2,0.6v17.2c0,3.9,4.8,5.8,7.5,2.9l3.8-4.1c0.8-0.9,0.9-2.2,0.2-3.2L34.3,55.6z"/></g></g><g class="st0"><path class="st1" d="M78.8,7.4H21.2c-7.6,0-13.8,6.2-13.8,13.8v57.6c0,7.6,6.2,13.8,13.8,13.8h57.6c7.6,0,13.8-6.2,13.8-13.8V21.2   C92.6,13.6,86.4,7.4,78.8,7.4z M38.1,28.7c0,5-4,9-9,9c-5,0-9-4-9-9c0-5,4-9,9-9C34.1,19.7,38.1,23.7,38.1,28.7z M78.2,25.1H47.7   c-1.4,0-2.5-1.1-2.5-2.5c0-1.4,1.1-2.5,2.5-2.5h30.4c1.4,0,2.5,1.1,2.5,2.5C80.7,24,79.6,25.1,78.2,25.1z M80.7,35.4   c0,1.4-1.1,2.5-2.5,2.5H47.7c-1.4,0-2.5-1.1-2.5-2.5c0-1.4,1.1-2.5,2.5-2.5h30.4C79.6,32.9,80.7,34,80.7,35.4z M78.8,87.6H21.2   c-4.8,0-8.7-3.9-8.7-8.7V50.6c11.9,0,63.2,0,75.1,0v28.2C87.6,83.6,83.6,87.6,78.8,87.6z"/></g><g class="st0"><g class="st1"><path d="M32.2,49.9h1.7c9.7,0,17.5-7.9,17.5-17.5v-4.9c0-9.7-7.9-17.5-17.5-17.5h-1.7c-9.7,0-17.5,7.9-17.5,17.5v4.9    C14.7,42.1,22.5,49.9,32.2,49.9z M19.7,27.5c0-6.9,5.6-12.5,12.5-12.5h1.7c6.9,0,12.5,5.6,12.5,12.5v4.9c0,6.9-5.6,12.5-12.5,12.5    h-1.7c-6.9,0-12.5-5.6-12.5-12.5V27.5z"/><path d="M73,47.2h1.2c7.3,0,13.3-5.9,13.3-13.3v-2.7C87.5,24,81.5,18,74.2,18H73c-7.3,0-13.3,5.9-13.3,13.3v2.7    C59.8,41.2,65.7,47.2,73,47.2z M64.8,31.3c0-4.5,3.7-8.2,8.2-8.2h1.2c4.5,0,8.2,3.7,8.2,8.2v2.7c0,4.5-3.7,8.2-8.2,8.2H73    c-4.5,0-8.2-3.7-8.2-8.2V31.3z"/><path d="M75,51.8h-3.4c-7.1,0-13.5,3.8-17.1,9.7c-3.9-3.7-9.1-5.9-14.9-5.9H26.9c-12,0-21.8,9.8-21.8,21.8v1.4    c0,6.2,5,11.3,11.3,11.3h33.8c6,0,10.9-4.8,11.2-10.7h26.8c3.7,0,6.7-3,6.7-6.7v-0.8C94.9,60.8,86,51.8,75,51.8z M56.4,78.7    c0,3.4-2.8,6.2-6.2,6.2H16.3c-3.4,0-6.2-2.8-6.2-6.2v-1.4c0-9.3,7.5-16.8,16.8-16.8h12.7c9.3,0,16.8,7.5,16.8,16.8V78.7z     M89.9,72.5c0,1-0.8,1.7-1.7,1.7h-27c-0.4-3.1-1.6-6-3.2-8.6c2.4-5.3,7.7-8.9,13.6-8.9H75c8.2,0,14.9,6.7,14.9,14.9V72.5z"/></g></g><g class="st0"><g class="st1"><path d="M32.2,49.9h1.7c9.7,0,17.5-7.9,17.5-17.5v-4.9c0-9.7-7.9-17.5-17.5-17.5h-1.7c-9.7,0-17.5,7.9-17.5,17.5v4.9    C14.7,42.1,22.5,49.9,32.2,49.9z"/><path d="M73,47.2h1.2c7.3,0,13.3-5.9,13.3-13.3v-2.7C87.5,24,81.5,18,74.2,18H73c-7.3,0-13.3,5.9-13.3,13.3v2.7    C59.8,41.2,65.7,47.2,73,47.2z"/><path d="M39.6,55.6H26.9c-12,0-21.8,9.8-21.8,21.8v1.4c0,6.2,5,11.3,11.3,11.3h33.8c6.2,0,11.3-5,11.3-11.3v-1.4    C61.4,65.4,51.6,55.6,39.6,55.6z"/><path d="M75,51.8h-3.4c-4,0-7.7,1.2-10.9,3.3c-1.1,0.7-1.3,2.3-0.4,3.3c4.6,5,7.4,11.6,7.4,18.9c0,0,0,0.1,0,0.2    c0,0.9,0.7,1.7,1.7,1.7h18.8c3.7,0,6.7-3,6.7-6.7v-0.8C94.9,60.7,86,51.8,75,51.8z"/></g></g><g class="st0"><g class="st1"><path d="M39.6,48.5c9.9,0,17.9-8,17.9-17.9v-7.2c0-9.2-7.5-16.8-16.8-16.8h-2.4c-9.2,0-16.8,7.5-16.8,16.8v7.2    C21.7,40.5,29.8,48.5,39.6,48.5z M26.7,23.4c0-6.5,5.3-11.8,11.8-11.8h2.4c6.5,0,11.8,5.3,11.8,11.8v7.2c0,7.1-5.8,12.9-12.9,12.9    s-12.9-5.8-12.9-12.9V23.4z"/><path d="M46.4,54H32.9C18,54,5.9,66.1,5.9,81v0.7c0,6.4,5.2,11.6,11.6,11.6h44.4c6.4,0,11.6-5.2,11.6-11.6V81    C73.4,66.1,61.3,54,46.4,54z M68.4,81.8c0,3.6-3,6.6-6.6,6.6H17.5c-3.6,0-6.6-3-6.6-6.6V81c0-12.2,9.9-22.1,22.1-22.1h13.4    c12.2,0,22.1,9.9,22.1,22.1V81.8z"/><path d="M93.7,18L88,12.3c-0.6-0.6-1.7-0.6-2.3,0l-2.8,2.8c-0.6,0.6-0.6,1.7,0,2.3l5.7,5.7c0.6,0.6,1.7,0.6,2.3,0l2.8-2.8    C94.3,19.7,94.3,18.6,93.7,18z"/><path d="M80.1,20.2c-0.6-0.6-1.7-0.6-2.3,0L67.1,30.9c-0.3,0.3-0.5,0.7-0.5,1.2v5.7c0,0.9,0.7,1.6,1.6,1.6h5.7    c0.4,0,0.8-0.2,1.2-0.5l10.7-10.7c0.6-0.6,0.6-1.7,0-2.3L80.1,20.2z"/></g></g><g class="st0"><g class="st1"><path d="M12.9,23.9h74.1c1.4,0,2.5-1.1,2.5-2.5s-1.1-2.5-2.5-2.5H12.9c-1.4,0-2.5,1.1-2.5,2.5S11.6,23.9,12.9,23.9z"/><path d="M87.1,47.5H12.9c-1.4,0-2.5,1.1-2.5,2.5s1.1,2.5,2.5,2.5h74.1c1.4,0,2.5-1.1,2.5-2.5S88.4,47.5,87.1,47.5z"/><path d="M87.1,76.1H12.9c-1.4,0-2.5,1.1-2.5,2.5s1.1,2.5,2.5,2.5h74.1c1.4,0,2.5-1.1,2.5-2.5S88.4,76.1,87.1,76.1z"/></g></g><g class="st0"><g class="st1"><path d="M41.7,23.6h40.5c1.4,0,2.5-1.1,2.5-2.5s-1.1-2.5-2.5-2.5H41.7c-1.4,0-2.5,1.1-2.5,2.5S40.3,23.6,41.7,23.6z"/><path d="M82.2,47.5H41.7c-1.4,0-2.5,1.1-2.5,2.5s1.1,2.5,2.5,2.5h40.5c1.4,0,2.5-1.1,2.5-2.5S83.6,47.5,82.2,47.5z"/><path d="M82.2,76.4H41.7c-1.4,0-2.5,1.1-2.5,2.5s1.1,2.5,2.5,2.5h40.5c1.4,0,2.5-1.1,2.5-2.5S83.6,76.4,82.2,76.4z"/><circle cx="21.4" cy="21.1" r="6.1"/><circle cx="21.4" cy="50" r="6.1"/><circle cx="21.9" cy="78.9" r="6.1"/></g></g><g class="st0"><path class="st1" d="M87.4,56.9l-9.6-9.5C75.4,45,73.7,41.8,73,38c-1.5-7.8-5.9-14.4-12.6-18.7c-3.3-2.1-6.9-3.5-10.6-4.2   c0-0.6-0.1-1.1-0.2-1.7c-1-5.5-6.4-9.1-11.9-8.1c-5.5,1-9.1,6.4-8.1,11.9c0.1,0.6,0.3,1.1,0.5,1.7c-7.5,4.6-12.7,12.6-13.6,21.7   c-0.3,2.8-0.2,5.5,0.4,8.2c0.7,3.5,0.4,6.8-1,9.8l-5.4,12.2c-1.5,3.4-1,7.4,1.3,10.3c1.9,2.5,4.8,3.9,7.9,3.9   c0.6,0,1.2-0.1,1.8-0.2l4.9-0.9c1.8,6.5,7.7,10.9,14.3,10.9c0.9,0,1.8-0.1,2.8-0.3c3.9-0.7,7.3-3,9.5-6.2c2-2.9,2.8-6.2,2.5-9.6   L82.1,74c3.7-0.7,6.7-3.3,7.8-6.9S90.1,59.6,87.4,56.9z M34.6,16.3c-0.3-1.4,0-2.7,0.8-3.9c0.8-1.1,1.9-1.9,3.3-2.2   c1.4-0.3,2.7,0,3.9,0.8c1.1,0.8,1.9,1.9,2.2,3.3c0,0.1,0,0.2,0,0.3c-2.2,0-4.4,0.3-6.6,0.8c-1.2,0.3-2.3,0.7-3.4,1.1   C34.7,16.5,34.6,16.4,34.6,16.3z M48.8,85.5c-1.5,2.2-3.7,3.6-6.3,4.1c-4.9,0.9-9.7-2-11.2-6.6l19.2-3.4   C50.6,81.7,50,83.7,48.8,85.5z M85.1,65.6c-0.6,1.8-2,3.1-3.9,3.5L20.6,79.9c-1.9,0.3-3.7-0.4-4.9-1.9c-1.2-1.5-1.4-3.4-0.6-5.2   l5.4-12.2c1.7-3.9,2.2-8.3,1.3-12.8c-0.4-2.2-0.5-4.5-0.3-6.7c1-10,8.2-18.4,17.8-20.7c1.9-0.5,3.8-0.7,5.7-0.7   c4.5,0,8.9,1.3,12.7,3.8c5.5,3.5,9.2,9,10.4,15.5c0.9,4.7,3,8.9,6.2,12l9.6,9.5C85.2,61.8,85.7,63.7,85.1,65.6z"/></g><g class="st0"><path class="st1" d="M50,4.8C24.8,4.8,4.4,23.6,4.4,46.9c0,12.7,6.1,24.1,15.8,31.9v13c0,2.8,3.2,4.4,5.5,2.8L35.9,87   c4.5,1.3,9.2,2.1,14.1,2.1c25.2,0,45.6-18.9,45.6-42.2C95.6,23.6,75.2,4.8,50,4.8z M73.7,36.8L55.9,57.4c-0.8,1-2.3,1-3.2,0   l-7.5-8.2l-17.6,9.2c-1,0.5-1.9-0.7-1.2-1.5l18.8-21.5c0.8-1,2.3-1,3.2-0.1l8.2,8.7l16-8.7C73.4,34.8,74.4,36,73.7,36.8z"/></g><g class="st0"><g class="st1"><path d="M86.8,9.3c-0.3-1-1.3-1.7-2.4-1.7H15.6c-1.1,0-2,0.7-2.4,1.7L7.9,24.5H92L86.8,9.3z"/><path d="M94.3,30.8H5.7c-0.2,0.9-0.3,1.8-0.3,2.8c0,7.6,6.2,13.8,13.8,13.8c4,0,7.7-1.7,10.3-4.6c2.6,2.9,6.3,4.6,10.3,4.6    s7.7-1.7,10.3-4.6c2.6,2.9,6.3,4.6,10.3,4.6c4,0,7.7-1.7,10.3-4.6c2.6,2.9,6.3,4.6,10.3,4.6c7.6,0,13.8-6.2,13.8-13.8    C94.6,32.6,94.5,31.7,94.3,30.8z"/><path d="M70.5,50.8c-3.1,1.8-6.6,2.8-10.3,2.8c-3.6,0-7.2-1-10.3-2.8c-3.1,1.8-6.6,2.8-10.3,2.8c-3.6,0-7.2-1-10.3-2.8    c-3.1,1.8-6.6,2.8-10.3,2.8c-2.1,0-4.2-0.3-6.1-1v33.2c0,3.6,2.9,6.5,6.5,6.5h20.6V64.9c0-1.5,1.2-2.6,2.6-2.6h14.4    c1.5,0,2.6,1.2,2.6,2.6v27.5h20.6c3.6,0,6.5-2.9,6.5-6.5V52.7c-1.9,0.6-4,1-6.1,1C77.2,53.7,73.6,52.7,70.5,50.8z"/></g></g><g class="st0"><path class="st1" d="M86.2,55.8c0-2.4-1.1-4.7-2.8-6.2c1.2-1.6,1.7-3.6,1.5-5.6c-0.4-4.2-4.2-7.6-8.6-7.6h-13l0.8-6.2   c0.2-1.9,0.2-3.5-0.2-5.1c-1.5-6.5-7.3-11.1-14-11.1c-1.5,0-3,0.6-4.1,1.7c-1.1,1.1-1.7,2.5-1.7,4v8.2c0,3.6-1,7-2.9,10.1l-3.5,5.6   c-0.5,0.8-1.2,1.4-2,1.8c-0.7-2.2-2.7-3.8-5.1-3.8H19.1c-3,0-5.4,2.4-5.4,5.4v33.7c0,3,2.4,5.4,5.4,5.4h11.7c3,0,5.4-2.4,5.4-5.4   v-0.8c2.6,2.3,6,3.7,9.7,3.7h25.4c2.3,0,4.6-1,6.2-2.6c1.6-1.6,2.4-3.7,2.3-5.9c0-0.8-0.1-1.5-0.4-2.3c2.7-1.4,4.5-4.2,4.5-7.4   c0-1.1-0.2-2.2-0.6-3.2C85.1,60.5,86.2,58.2,86.2,55.8z M31.1,80.6c0,0.2-0.2,0.4-0.4,0.4H19.1c-0.2,0-0.4-0.2-0.4-0.4V46.9   c0-0.2,0.2-0.4,0.4-0.4h11.7c0.2,0,0.4,0.2,0.4,0.4V80.6z M79.3,58.8c-0.8,0.4-1.4,1.1-1.6,2c-0.2,0.9,0,1.8,0.6,2.5   c0.5,0.6,0.7,1.3,0.7,2c0,1.6-1.2,3-2.8,3.3c-1,0.2-1.9,0.8-2.3,1.8c-0.4,1-0.3,2,0.3,2.9c0.4,0.5,0.6,1.2,0.6,1.9   c0,0.8-0.3,1.7-0.9,2.3c-0.7,0.7-1.7,1.1-2.7,1.1H45.8c-5.3,0-9.7-4.3-9.7-9.7V50.5c2.5-0.6,4.6-2.1,6-4.3l3.5-5.6   c2.4-3.8,3.7-8.2,3.7-12.7v-8.2c0-0.2,0.1-0.4,0.2-0.5c0.1-0.1,0.3-0.2,0.5-0.2c0,0,0,0,0,0c4.4,0,8.1,3,9.1,7.2   c0.2,0.9,0.3,2,0.1,3.3l-0.9,7c-0.2,1.2,0.2,2.4,1,3.4c0.8,0.9,2,1.5,3.2,1.5h13.8c1.7,0,3.4,1.4,3.6,3c0.1,1.2-0.5,2.4-1.5,3.1   c-0.9,0.6-1.4,1.7-1.3,2.8c0.1,1.1,0.8,2,1.9,2.4c1.3,0.5,2.1,1.7,2.1,3.1C81.2,57.1,80.5,58.2,79.3,58.8z"/></g><g class="st0"><g class="st1"><path d="M33.9,84.7c-0.6,0-1.3-0.1-1.9-0.4c-1.6-0.7-2.6-2.3-2.6-4.1V69.9c-8.4-1.7-14.6-9.3-14.6-18V33.7    c0-10.1,8.2-18.4,18.4-18.4h33.7c10.1,0,18.4,8.2,18.4,18.4v18.3c0,10.1-8.2,18.4-18.4,18.4H53c-0.5,0-1.1,0.2-1.5,0.5L36.8,83.6    C36,84.4,35,84.7,33.9,84.7z M33.2,20.3c-7.4,0-13.4,6-13.4,13.4v18.3c0,6.7,5,12.4,11.6,13.2c1.7,0.2,3,1.7,3,3.4v10.4l13.8-12    c1.3-1.1,3-1.8,4.7-1.8h13.9c7.4,0,13.4-6,13.4-13.4V33.7c0-7.4-6-13.4-13.4-13.4H33.2z"/></g></g><g class="st0"><g class="st1"><circle cx="30" cy="50" r="4.2"/><circle cx="50" cy="50" r="4.2"/><circle cx="70" cy="50" r="4.2"/><path d="M50,9C27.4,9,9,27.4,9,50s18.4,41,41,41s41-18.4,41-41S72.6,9,50,9z M50,86c-19.9,0-36-16.2-36-36s16.2-36,36-36    c19.9,0,36,16.2,36,36S69.9,86,50,86z"/></g></g><g class="st0"><g class="st1"><path d="M17.2,83.8c-0.2,0-0.5,0-0.7-0.1c-1.5-0.3-2.5-1.4-2.7-2.9c-0.3-2-0.4-4-0.4-6.1c0-21.4,15.8-39.7,36.9-42.7V20.5    c0-1.7,1-3.3,2.7-4c1.6-0.7,3.5-0.3,4.7,0.9l27.6,27.6c1,1,1.5,2.2,1.5,3.6c0,1.4-0.5,2.6-1.5,3.6L57.6,79.8    c-1.2,1.2-3.1,1.6-4.7,0.9c-1.6-0.7-2.7-2.2-2.7-4V63.9c-12.4,0.8-23.6,7.6-30.1,18.2C19.5,83.2,18.4,83.8,17.2,83.8z M55.3,22.2    v10.3c0,2.2-1.7,4.1-3.9,4.4c-18.9,2.5-33.1,18.8-33.1,37.8c0,0.4,0,0.8,0,1.2C26,65.7,37.8,59.4,50.7,58.8    c1.2-0.1,2.3,0.4,3.2,1.2c0.9,0.8,1.4,2,1.4,3.2v11.9l26.4-26.4v-0.1L55.3,22.2z"/></g></g><g class="st0"><g class="st1"><circle cx="50" cy="53.9" r="17.2"/><path d="M79.5,22.3h-4.3c-1.9,0-3.8-0.8-5.1-2.1l-5.6-5.7c-1.7-1.8-4.1-2.8-6.6-2.8H41.6c-2.5,0-5,1-6.7,2.9l-5.3,5.5    c-1.4,1.4-3.2,2.2-5.2,2.2h-3.9c-7.1,0-12.9,5.8-12.9,12.9v40.2c0,7.1,5.8,12.9,12.9,12.9h59c7.1,0,12.9-5.8,12.9-12.9V35.2    C92.4,28.1,86.6,22.3,79.5,22.3z M50,77.6c-13.1,0-23.7-10.6-23.7-23.7c0-13.1,10.6-23.7,23.7-23.7s23.7,10.6,23.7,23.7    C73.7,67,63.1,77.6,50,77.6z M78.7,40.2c-2.7,0-4.9-2.2-4.9-4.9c0-2.7,2.2-4.9,4.9-4.9s4.9,2.2,4.9,4.9    C83.6,38,81.4,40.2,78.7,40.2z"/></g></g><g class="st0"><g class="st1"><path d="M50,25.5c-8.3,0-15,6.7-15,15s6.7,15,15,15s15-6.7,15-15S58.3,25.5,50,25.5z M50,50.5c-5.5,0-10-4.5-10-10s4.5-10,10-10    s10,4.5,10,10S55.5,50.5,50,50.5z"/><path d="M73.9,14.9c-7-6.5-16.2-9.8-25.8-9.2C29.6,6.7,15.1,22,15.1,40.5c0,25.1,24.5,46.7,31.9,52.8c0.9,0.7,1.9,1,2.9,1    c1,0,2.1-0.3,2.9-1c3.1-2.5,11.2-9.4,18.4-18.8c9.2-11.9,13.7-23.6,13.5-34.6C84.7,30.3,80.8,21.4,73.9,14.9z M50,89.3    c-5.5-4.4-29.9-25.6-29.9-48.7c0-15.9,12.4-29,28.2-29.8c0.6,0,1.2,0,1.8,0c7.6,0,14.8,2.8,20.4,8c5.9,5.5,9.3,13.1,9.4,21.4    C80.3,63.3,55.5,84.8,50,89.3z"/></g></g><g class="st0"><g class="st1"><path d="M40.9,48.5c9.9,0,17.9-8,17.9-17.9v-7.2c0-9.2-7.5-16.8-16.8-16.8h-2.4C30.5,6.6,23,14.1,23,23.4v7.2    C23,40.5,31,48.5,40.9,48.5z M28,23.4c0-6.5,5.3-11.8,11.8-11.8h2.4c6.5,0,11.8,5.3,11.8,11.8v7.2c0,7.1-5.8,12.9-12.9,12.9    S28,37.7,28,30.6V23.4z"/><path d="M47.6,54H34.2C19.3,54,7.1,66.1,7.1,81v0.7c0,6.4,5.2,11.6,11.6,11.6h44.4c6.4,0,11.6-5.2,11.6-11.6V81    C74.7,66.1,62.5,54,47.6,54z M69.7,81.8c0,3.6-3,6.6-6.6,6.6H18.7c-3.6,0-6.6-3-6.6-6.6V81C12.1,68.9,22,59,34.2,59h13.4    c12.2,0,22.1,9.9,22.1,22.1V81.8z"/><path d="M92.3,28.9L81.7,18.4c-0.4-0.4-0.9-0.6-1.5-0.6l-9.9,0c-0.6,0-1.1,0.2-1.5,0.6l-1.3,1.3c-0.4,0.4-0.6,0.9-0.6,1.5l0,9.9    c0,0.6,0.2,1.1,0.6,1.5l10.6,10.6c0.8,0.8,2.2,0.8,3,0l11.2-11.2C93.1,31.1,93.1,29.7,92.3,28.9z M73.6,27.1    c-1.4,0-2.6-1.2-2.6-2.6c0-1.4,1.2-2.6,2.6-2.6c1.4,0,2.6,1.2,2.6,2.6C76.3,25.9,75.1,27.1,73.6,27.1z"/></g></g><g class="st0"><g class="st1"><path d="M87.4,56.9L87.4,56.9l-9.6-9.5c-2.4-2.4-4.1-5.6-4.8-9.3l0-0.1c-1.5-7.8-5.9-14.4-12.6-18.7c-3.3-2.1-6.9-3.5-10.6-4.2    c0-0.6-0.1-1.1-0.2-1.7c-0.9-4.9-5.2-8.3-10-8.3c-0.6,0-1.2,0.1-1.9,0.2c-2.7,0.5-5,2-6.5,4.3s-2.1,4.9-1.6,7.6    c0.1,0.6,0.3,1.1,0.5,1.7c-7.5,4.6-12.7,12.6-13.6,21.7c-0.3,2.8-0.2,5.5,0.4,8.2c0.7,3.5,0.4,6.8-0.9,9.8l-5.4,12.2    c-1.5,3.4-1,7.4,1.3,10.3c1.9,2.5,4.8,3.9,7.9,3.9c0,0,0,0,0,0c0.6,0,1.2-0.1,1.8-0.2L82.1,74c3.7-0.7,6.7-3.3,7.8-6.9    C91,63.4,90.1,59.6,87.4,56.9z M38.2,15.5c-1.2,0.3-2.3,0.7-3.5,1.1c0-0.1-0.1-0.2-0.1-0.4c-0.5-2.8,1.3-5.5,4.1-6    c0.3-0.1,0.6-0.1,1-0.1c2.4,0,4.6,1.7,5.1,4.2c0,0.1,0,0.2,0,0.3C42.6,14.7,40.4,15,38.2,15.5z"/><path d="M32.3,92.2c2.5,1.7,5.4,2.6,8.4,2.6c0.9,0,1.9-0.1,2.8-0.3c3.9-0.7,7.3-3,9.5-6.2c0.7-1,1.2-2,1.6-3.1l-25.1,4.5    C30.3,90.6,31.2,91.5,32.3,92.2z"/></g></g><g class="st0"><g class="st1"><path d="M66.7,7.6H33.3C18,7.6,5.5,20.1,5.5,35.4v29.1c0,15.4,12.5,27.8,27.8,27.8h33.4c15.4,0,27.8-12.5,27.8-27.8V35.4    C94.5,20.1,82,7.6,66.7,7.6z M89.5,64.6c0,12.6-10.2,22.8-22.8,22.8H33.3c-12.6,0-22.8-10.2-22.8-22.8V35.4    c0-12.6,10.2-22.8,22.8-22.8h33.4c12.6,0,22.8,10.2,22.8,22.8V64.6z"/><path d="M55.3,31.9c-1.4,0-2.5,1.1-2.5,2.5v33.2c0,1.4,1.1,2.5,2.5,2.5s2.5-1.1,2.5-2.5V34.4C57.8,33,56.7,31.9,55.3,31.9z"/><path d="M66.1,31.9c-1.4,0-2.5,1.1-2.5,2.5v33.2c0,1.4,1.1,2.5,2.5,2.5s2.5-1.1,2.5-2.5V52.5h12.5c1.4,0,2.5-1.1,2.5-2.5    s-1.1-2.5-2.5-2.5H68.6V36.9h12.5c1.4,0,2.5-1.1,2.5-2.5s-1.1-2.5-2.5-2.5H66.1z"/><path d="M34.8,36.9c3.2,0,6.3,1.7,8.5,4.7c0.8,1.1,2.4,1.4,3.5,0.5c1.1-0.8,1.4-2.4,0.5-3.5c-3.1-4.3-7.7-6.7-12.5-6.7    c-9.1,0-16.4,8.6-16.4,19.1s7.4,19.1,16.4,19.1c4.8,0,9.4-2.4,12.5-6.7c0.3-0.4,0.5-0.9,0.5-1.5v-9.9c0-1.4-1.1-2.5-2.5-2.5    s-2.5,1.1-2.5,2.5V61c-2.1,2.6-5,4-8,4c-6.3,0-11.4-6.3-11.4-14.1S28.5,36.9,34.8,36.9z"/></g></g><g class="st0"><g class="st1"><path d="M41.8,48.5c9.9,0,17.9-8,17.9-17.9v-7.2c0-9.2-7.5-16.8-16.8-16.8h-2.4c-9.2,0-16.8,7.5-16.8,16.8v7.2    C23.9,40.5,32,48.5,41.8,48.5z M28.9,23.4c0-6.5,5.3-11.8,11.8-11.8H43c6.5,0,11.8,5.3,11.8,11.8v7.2c0,7.1-5.8,12.9-12.9,12.9    s-12.9-5.8-12.9-12.9V23.4z"/><path d="M48.6,54H35.1C20.2,54,8.1,66.1,8.1,81v0.7c0,6.4,5.2,11.6,11.6,11.6H64c6.4,0,11.6-5.2,11.6-11.6V81    C75.6,66.1,63.5,54,48.6,54z M70.6,81.8c0,3.6-3,6.6-6.6,6.6H19.7c-3.6,0-6.6-3-6.6-6.6V81C13.1,68.9,23,59,35.1,59h13.4    c12.2,0,22.1,9.9,22.1,22.1V81.8z"/><path d="M89.4,27.4h-7v-7c0-1.4-1.1-2.5-2.5-2.5s-2.5,1.1-2.5,2.5v7h-7c-1.4,0-2.5,1.1-2.5,2.5s1.1,2.5,2.5,2.5h7v7    c0,1.4,1.1,2.5,2.5,2.5s2.5-1.1,2.5-2.5v-7h7c1.4,0,2.5-1.1,2.5-2.5S90.8,27.4,89.4,27.4z"/></g></g><g class="st0"><g class="st1"><path d="M50,9C27.4,9,9,27.4,9,50s18.4,41,41,41s41-18.4,41-41S72.6,9,50,9z M50,86c-19.9,0-36-16.2-36-36c0-19.9,16.2-36,36-36    s36,16.2,36,36C86,69.9,69.9,86,50,86z"/><circle cx="34.4" cy="39.7" r="4"/><circle cx="65.6" cy="39.7" r="4"/><path d="M69.5,53H30.5c-1.3,0-2.6,0.6-3.4,1.7c-0.8,1.1-1,2.4-0.7,3.7C29.5,68.8,39.2,76,50,76s20.5-7.2,23.5-17.6    c0.4-1.3,0.1-2.6-0.7-3.7C72,53.7,70.8,53,69.5,53z M43,69.7c1.9-1.7,4.4-2.7,7-2.7c2.6,0,5.1,1,7,2.6c-2.2,0.8-4.5,1.3-7,1.3    C47.6,71,45.2,70.5,43,69.7z M61.5,67.2C58.6,63.9,54.4,62,50,62c-4.5,0-8.6,1.9-11.5,5.2c-3.1-2.3-5.5-5.4-6.8-9.1h36.7    C67,61.8,64.6,64.9,61.5,67.2z"/></g></g><g class="st0"><g class="st1"><path d="M92.7,23.7c-1.5-0.8-3.4-0.7-4.8,0.3l-18.4,13v-9.3c0-7.1-5.7-12.8-12.8-12.8H17.6c-7.1,0-12.8,5.7-12.8,12.8v44.5    c0,7.1,5.7,12.8,12.8,12.8h39.1c7.1,0,12.8-5.7,12.8-12.8v-9.3l18.4,13c0.8,0.6,1.7,0.8,2.7,0.8c0.7,0,1.4-0.2,2.1-0.5    c1.5-0.8,2.5-2.4,2.5-4.1V27.8C95.2,26,94.2,24.5,92.7,23.7z M64.5,72.2c0,4.3-3.5,7.8-7.8,7.8H17.6c-4.3,0-7.8-3.5-7.8-7.8V27.8    c0-4.3,3.5-7.8,7.8-7.8h39.1c4.3,0,7.8,3.5,7.8,7.8V72.2z M69.5,43.2l7.8-5.6v24.7l-7.8-5.6V43.2z M90.2,71.5l-7.8-5.6V34.1    l7.8-5.6V71.5z"/><path d="M37.2,34.9c-9,0-17.2,5-21.3,13.1c-0.7,1.3-0.7,2.9,0,4.2c4.1,8.1,12.3,13.1,21.3,13.1c9,0,17.2-5,21.3-13.1    c0.7-1.3,0.7-2.9,0-4.2C54.4,39.9,46.2,34.9,37.2,34.9z M37.2,60.1c-7.1,0-13.5-3.9-16.8-10.1c3.3-6.3,9.7-10.1,16.8-10.1    S50.6,43.7,53.9,50C50.6,56.3,44.2,60.1,37.2,60.1z"/><circle cx="37.2" cy="50" r="9.3"/></g></g><g class="st0"><g class="st1"><path d="M75.7,5.7H24.3c-7,0-12.8,5.7-12.8,12.8v63c0,7,5.7,12.8,12.8,12.8h51.4c7,0,12.8-5.7,12.8-12.8v-63    C88.5,11.5,82.8,5.7,75.7,5.7z M83.5,81.5c0,4.3-3.5,7.7-7.7,7.7H24.3c-4.3,0-7.7-3.5-7.7-7.7v-63c0-4.3,3.5-7.7,7.7-7.7h51.4    c4.3,0,7.7,3.5,7.7,7.7V81.5z"/><path d="M38.8,34.4c0,0,0-0.1-0.1-0.1c0-0.1-0.1-0.2-0.1-0.2c0-0.1-0.1-0.1-0.1-0.2c-0.1-0.1-0.1-0.1-0.2-0.2    c-0.1-0.1-0.1-0.1-0.2-0.2c-0.1-0.1-0.1-0.1-0.2-0.1c-0.1,0-0.1-0.1-0.2-0.1c0,0-0.1,0-0.1-0.1c0,0-0.1,0-0.1,0    c-0.1,0-0.2-0.1-0.2-0.1c-0.1,0-0.2,0-0.2-0.1c-0.1,0-0.2,0-0.2,0c-0.1,0-0.2,0-0.2,0c-0.1,0-0.2,0-0.2,0c-0.1,0-0.2,0-0.2,0    c-0.1,0-0.2,0-0.2,0.1c-0.1,0-0.2,0.1-0.2,0.1c0,0-0.1,0-0.1,0c0,0-0.1,0-0.1,0.1c-0.1,0-0.1,0.1-0.2,0.1c-0.1,0-0.1,0.1-0.2,0.1    c-0.1,0.1-0.1,0.1-0.2,0.2c-0.1,0.1-0.1,0.1-0.2,0.2c0,0.1-0.1,0.1-0.1,0.2c0,0.1-0.1,0.1-0.1,0.2c0,0,0,0.1-0.1,0.1L20.5,64    c-0.6,1.3,0,2.7,1.2,3.3c0.3,0.2,0.7,0.2,1.1,0.2c0.9,0,1.8-0.5,2.3-1.4l3.6-7.8h15.8l3.6,7.8c0.4,0.9,1.3,1.4,2.3,1.4    c0.4,0,0.7-0.1,1.1-0.2c1.3-0.6,1.8-2.1,1.2-3.3L38.8,34.4z M31,53.3l5.6-11.9l5.6,11.9H31z"/><path d="M66.8,37.8c-4.5,0-8.5,3-9.7,7.4c-0.4,1.3,0.4,2.7,1.8,3.1c1.3,0.4,2.7-0.4,3.1-1.8c0.6-2.2,2.6-3.7,4.9-3.7    c2.8,0,5,2.3,5,5v2.2l-6-0.2c-4.9,0-8.8,4-8.8,8.8s4,8.8,8.8,8.8c2.4,0,4.4-0.9,6-2.2c0.2,1.2,1.2,2.2,2.5,2.2    c1.4,0,2.5-1.1,2.5-2.5V47.8C76.8,42.3,72.3,37.8,66.8,37.8z M65.8,62.5c-2.1,0-3.8-1.7-3.8-3.8s1.7-3.8,3.7-3.8l6.1,0.2    C71.7,57.3,69.8,62.5,65.8,62.5z"/></g></g><g class="st0"><g class="st1"><path d="M92.4,49.4c-1.4-0.8-3.1-0.7-4.4,0.1l-13.8,8.8v-2.5c0-5.4-3.5-10-8.3-11.7c5.3-3.5,8.9-9.6,8.9-16.5    c0-10.9-8.9-19.7-19.7-19.7c-9.1,0-16.8,6.2-19,14.6c-2.8-3.2-6.8-5.2-11.3-5.2c-8.3,0-15,6.7-15,15c0,4.6,2,8.6,5.3,11.4    C9.5,45.1,5.5,50,5.5,55.9v23.8c0,6.9,5.6,12.4,12.4,12.4h43.9c6.9,0,12.4-5.6,12.4-12.4v-0.4L88.1,88c0.7,0.5,1.5,0.7,2.3,0.7    c0.7,0,1.4-0.2,2.1-0.5c1.3-0.7,2.1-2,2.1-3.5V52.9C94.5,51.4,93.8,50.1,92.4,49.4z M38.5,38.4c1.3,2,2.9,3.7,4.7,5.1h-8.3    C36.4,42,37.6,40.3,38.5,38.4z M55.1,12.9c8.1,0,14.7,6.6,14.7,14.7c0,8.1-6.6,14.7-14.7,14.7s-14.7-6.6-14.7-14.7    C40.3,19.5,46.9,12.9,55.1,12.9z M24.7,22.4c5.5,0,10,4.5,10,10s-4.5,10-10,10s-10-4.5-10-10S19.2,22.4,24.7,22.4z M69.3,79.6    c0,4.1-3.3,7.4-7.4,7.4H17.9c-4.1,0-7.4-3.3-7.4-7.4V55.9c0-4.1,3.3-7.4,7.4-7.4h43.9c4.1,0,7.4,3.3,7.4,7.4V79.6z M89.5,83    l-15.3-9.8v-8.9l15.3-9.8V83z"/><path d="M52.1,65.2H27.6c-1.4,0-2.5,1.1-2.5,2.5s1.1,2.5,2.5,2.5h24.5c1.4,0,2.5-1.1,2.5-2.5S53.5,65.2,52.1,65.2z"/></g></g><g><g><path d="M53.2,69.3L40.6,81.9c-5.8,5.8-15.1,5.8-20.9,0l-1.1-1.1c-2.8-2.8-4.3-6.5-4.3-10.5c0-3.9,1.5-7.7,4.3-10.5L34,44.5    c5.8-5.8,15.1-5.8,20.9,0l1.1,1.1c1.6,1.6,2.8,3.4,3.5,5.5c0.5,1.3,1.9,2,3.2,1.5c1.3-0.5,2-1.9,1.5-3.2c-1-2.8-2.6-5.3-4.7-7.4    L58.4,41c-7.7-7.7-20.3-7.7-28,0L15,56.4c-3.7,3.7-5.8,8.7-5.8,14c0,5.3,2.1,10.3,5.8,14l1.1,1.1c3.9,3.9,8.9,5.8,14,5.8    c5.1,0,10.1-1.9,14-5.8l12.6-12.6c1-1,1-2.6,0-3.5C55.8,68.3,54.2,68.3,53.2,69.3z"/><path d="M85,15.6l-1.1-1.1c-7.7-7.7-20.3-7.7-28,0L43.3,27.2c-1,1-1,2.6,0,3.5c1,1,2.6,1,3.5,0l12.6-12.6c5.8-5.8,15.1-5.8,20.9,0    l1.1,1.1c5.8,5.8,5.8,15.1,0,20.9L66,55.5c-2.8,2.8-6.5,4.3-10.5,4.3s-7.7-1.5-10.5-4.3L44,54.4c-1.6-1.6-2.8-3.4-3.5-5.5    c-0.5-1.3-1.9-2-3.2-1.5c-1.3,0.5-2,1.9-1.5,3.2c1,2.8,2.6,5.3,4.7,7.4l1.1,1.1c3.7,3.7,8.7,5.8,14,5.8s10.3-2.1,14-5.8L85,43.6    C92.7,35.9,92.7,23.3,85,15.6z"/></g></g><g class="st0"><g class="st1"><circle cx="49.1" cy="29.6" r="5.7"/><path d="M91.9,15.4c-1.9-2.2-4.6-3.5-7.5-3.7L44.1,8.8c-0.3,0-0.5,0-0.8,0c-5.6,0-10.4,4.4-10.9,10.1l-4,57.8    c-0.2,2.9,0.7,5.7,2.6,7.9c1.9,2.2,4.6,3.5,7.5,3.7l40.4,2.8c0.3,0,0.5,0,0.8,0c2.6,0,5.1-0.9,7.1-2.7c2.2-1.9,3.5-4.6,3.7-7.5    l1.8-25.2c0,0,0,0,0,0l2.3-32.6C94.8,20.4,93.8,17.6,91.9,15.4z M37.5,19.3c0.2-3.1,2.8-5.5,5.9-5.5c0.1,0,0.3,0,0.4,0l40.4,2.8    c3.2,0.2,5.7,3,5.5,6.3l-1.9,26.6L77.4,37.6c-0.9-1-2.4-1.2-3.5-0.3L53.8,54L48,47.4c-0.9-1-2.4-1.1-3.4-0.3L35,54.8L37.5,19.3z     M85.5,80.7c-0.1,1.6-0.8,3-2,4c-1.1,0.9-2.4,1.4-3.9,1.4c-0.1,0-0.3,0-0.4,0l-40.4-2.8c-3.2-0.2-5.7-3-5.5-6.3l1.1-15.5l11.3-9.1    L56,64c0.5,0.6,1.2,0.8,1.9,0.8c0.6,0,1.2-0.2,1.7-0.6c1-0.9,1.1-2.5,0.2-3.5l-2.6-2.9l18.1-15.1l12,13.9L85.5,80.7z"/><path d="M15.8,15.3L27,14.4c0.6-1.9,1.6-3.7,2.8-5.2l-14.4,1.2c-2.9,0.2-5.5,1.6-7.4,3.8c-1.9,2.2-2.8,5-2.6,7.9l4.6,57.7    c0.2,2.9,1.6,5.5,3.8,7.4c2,1.7,4.5,2.6,7,2.6c0.3,0,0.6,0,0.9,0l5.1-0.4c-0.2-0.2-0.4-0.4-0.6-0.6c-1.1-1.3-2-2.7-2.7-4.1    l-2.3,0.2c-1.6,0.1-3.1-0.4-4.3-1.4c-1.2-1-1.9-2.4-2.1-4l-4.6-57.7c-0.1-1.6,0.4-3.1,1.4-4.3C12.8,16.1,14.3,15.4,15.8,15.3z"/></g></g><g class="st0"><g class="st1"><path d="M51.2,20.5h-2.4c-9.2,0-16.8,7.5-16.8,16.8v7.2c0,9.9,8,17.9,17.9,17.9s17.9-8,17.9-17.9v-7.2    C67.9,28,60.4,20.5,51.2,20.5z M62.9,44.5c0,7.1-5.8,12.9-12.9,12.9s-12.9-5.8-12.9-12.9v-7.2c0-6.5,5.3-11.8,11.8-11.8h2.4    c6.5,0,11.8,5.3,11.8,11.8V44.5z"/><path d="M82.2,10H17.8c-4.3,0-7.8,3.5-7.8,7.8v64.5c0,4.3,3.5,7.8,7.8,7.8h64.5c4.3,0,7.8-3.5,7.8-7.8V17.8    C90,13.5,86.5,10,82.2,10z M23.6,85c3.6-7.2,11.1-12.2,19.7-12.2h13.4c8.6,0,16.1,5,19.7,12.2H23.6z M85,82.2    c0,1.5-1.2,2.8-2.8,2.8h-0.3c-4-10-13.7-17.2-25.2-17.2H43.3c-11.4,0-21.2,7.1-25.2,17.2h-0.3c-1.5,0-2.8-1.2-2.8-2.8V17.8    c0-1.5,1.2-2.8,2.8-2.8h64.5c1.5,0,2.8,1.2,2.8,2.8V82.2z"/></g></g><text x="0" y="115" fill="#000000" font-size="5px" font-weight="bold" font-family="'Helvetica Neue', Helvetica, Arial-Unicode, Arial, Sans-serif">Created by Ilaria Bernareggi</text><text x="0" y="120" fill="#000000" font-size="5px" font-weight="bold" font-family="'Helvetica Neue', Helvetica, Arial-Unicode, Arial, Sans-serif">from the Noun Project</text></svg>